# xmcd
#
# Track frame offsets:
#	150
#	18756
#	34995
#	54197
#	71050
#	90032
#	109672
#	116725
#	142403
#	160156
#	167367
#	183682
#	204210
#	219294
#	236777
#	249775
#	264509
#	279999
#	294859
#	308527
#	325716
#	339158
#	355956
#
# Disc length: 4798 seconds
#
# Revision: 1
# Processed by: cddbd v1.4PL0 Copyright (c) Steve Scherf et al.
# Submitted via: audiograbber 1.82.01
#
DISCID=3812bc17
DTITLE=Patricia Kaas - mademoiselle chante le blues
DYEAR=1900
DGENRE=
TTITLE0=Mon mec a moi
TTITLE1=Les hommes qui passent
TTITLE2=Quand J'ai reur de tout
TTITLE3=Venus des abribus
TTITLE4=Des mensonges en musique
TTITLE5=D'alemagne
TTITLE6=Un derinier blues
TTITLE7=Ma liberte contre la tienne
TTITLE8=Elle voulalt joucabaret
TTITLE9=Chanson d'amour pas finie
TTITLE10=Quand Jimmy diy
TTITLE11=Quand Je t'oublie
TTITLE12=Chanson simple
TTITLE13=L'heure du jazz
TTITLE14=Souvenirs de l'est
TTITLE15=kennedy rose
TTITLE16=Une fille de l'est
TTITLE17=coeurs brises
TTITLE18=L'interriment de s. bechet
TTITLE19=Les mannequins d'osier
TTITLE20=Une dernier semainf a New York
TTITLE21=Mademoiselle chante le blues
TTITLE22=Generique
EXTD=
EXTT0=
EXTT1=
EXTT2=
EXTT3=
EXTT4=
EXTT5=
EXTT6=
EXTT7=
EXTT8=
EXTT9=
EXTT10=
EXTT11=
EXTT12=
EXTT13=
EXTT14=
EXTT15=
EXTT16=
EXTT17=
EXTT18=
EXTT19=
EXTT20=
EXTT21=
EXTT22=
PLAYORDER=
